<svg
  class="img-fluid"
  id="outputsvg"
  xmlns="http://www.w3.org/2000/svg"
  width="314"
  height="184"
  viewBox="0 0 3140 1840"
>
  <g
    id="l2BwEGxEE6YsZm8EOe4d6qO"
    fill="rgb(252,255,87)"
    style="transform: none"
  >
    <g style="transform: none">
      <path
        id="p1Gc9eJLE8"
        d="M325 1815 c-16 -14 -68 -63 -115 -110 -68 -67 -93 -101 -127 -169 -42 -85 -43 -88 -43 -191 l0 -105 160 0 c100 0 160 -4 160 -10 0 -5 -8 -10 -17 -10 -10 0 -65 -46 -122 -101 -86 -84 -109 -114 -140 -178 l-36 -76 -3 -206 -3 -207 30 -48 c17 -26 31 -54 31 -62 0 -8 46 -60 103 -117 78 -79 121 -113 179 -144 l77 -41 1169 0 1168 0 80 39 c62 31 97 57 163 125 47 47 88 86 93 86 4 0 8 88 8 195 l0 195 -120 0 c-112 0 -152 10 -96 24 13 3 67 49 120 103 l96 97 0 363 c0 317 -2 363 -16 371 -8 4 -59 52 -114 105 l-98 97 -1279 0 -1278 0 -30 -25z m2430 -146 c52 -27 211 -183 236 -231 16 -31 19 -58 19 -171 0 -171 -9 -192 -127 -309 -142 -139 -81 -128 -713 -128 l-541 0 -47 24 c-49 25 -211 181 -224 216 -7 20 -3 20 704 20 l711 0 -5 105 c-4 97 -7 109 -34 148 -17 24 -48 52 -74 65 l-44 22 -1172 0 -1172 0 6 23 c8 31 171 188 224 215 l43 22 1085 0 c1082 0 1085 0 1125 -21z m-1819 -606 c-30 -57 -178 -190 -253 -227 l-73 -36 0 -63 c0 -84 15 -131 56 -177 68 -75 -26 -70 1213 -70 1053 0 1110 -1 1104 -17 -11 -33 -178 -194 -225 -219 l-47 -24 -1082 0 -1082 0 -43 22 c-55 27 -207 175 -234 227 -17 35 -20 59 -20 181 0 133 2 144 26 187 30 54 169 189 228 220 38 21 54 22 244 23 l203 0 -15 -27z m247 -123 c23 -42 223 -240 243 -240 8 0 14 -4 14 -10 0 -6 -103 -10 -290 -10 -159 0 -290 4 -290 8 0 5 16 14 35 22 19 8 35 17 35 21 0 4 43 50 95 101 52 51 95 99 95 106 0 17 22 42 35 38 5 -1 17 -17 28 -36z"
      ></path>
    </g>
  </g>
  <g id="l5XIQZ9zFzRHhsqDhBf47be" fill="rgb(0,0,0)" style="transform: none">
    <g style="transform: none">
      <path
        id="p1B8JGiCWo"
        d="M473 1698 c-59 -32 -199 -165 -219 -207 -9 -20 -23 -44 -31 -53 -8 -9 -12 -22 -8 -27 4 -8 364 -11 1188 -11 l1183 0 44 -22 c69 -35 100 -88 107 -181 l6 -77 -722 0 c-800 0 -740 6 -701 -67 29 -55 178 -201 232 -229 l47 -24 571 0 c667 0 601 -11 743 128 122 120 127 134 127 339 0 198 -1 201 -127 325 -147 144 10 128 -1283 128 l-1115 0 -42 -22z"
      ></path>
      <path
        id="p13fEesU7S"
        d="M474 1097 c-59 -31 -198 -166 -228 -220 -25 -44 -26 -52 -26 -217 0 -152 2 -175 20 -211 27 -52 179 -200 234 -227 l43 -22 1112 0 1112 0 47 24 c84 44 280 265 255 290 -3 3 -510 6 -1126 6 -1248 0 -1153 -5 -1221 70 -36 40 -56 92 -56 147 0 31 5 35 78 72 58 30 96 59 158 123 76 77 139 169 126 182 -3 3 -114 6 -246 6 -229 -1 -243 -2 -282 -23z"
      ></path>
    </g>
  </g>
</svg>
